<?xml version="1.0" encoding="UTF-8"?>
<!DOCTYPE svg PUBLIC "-//W3C//DTD SVG 1.1//EN" "http://www.w3.org/Graphics/SVG/1.1/DTD/svg11.dtd">
<svg version="1.1" xmlns="http://www.w3.org/2000/svg" xmlns:xlink="http://www.w3.org/1999/xlink" x="0" y="0" width="241.72" height="261.49" viewBox="0, 0, 241.72, 261.49">
  <g id="Calque_1">
    <path d="M162.31,99.18 C168.956,105.828 173.322,114.413 174.78,123.7 L193.88,104.6 L241.69,56.79 L204.69,19.79 L156.89,67.62 L156.89,0 L104.59,0 L104.59,94.63 C122.337,81.768 146.797,83.696 162.31,99.18 z" fill="#00D1FF"/>
    <path d="M174.78,137.8 C172.361,153.111 162.153,166.062 147.832,171.992 C133.51,177.923 117.135,175.979 104.6,166.86 L104.6,261.49 L156.89,261.49 L156.89,193.88 L204.71,241.69 L241.71,204.69 L193.89,156.87 z" fill="#00D1FF"/>
    <path d="M99.18,162.31 C81.747,144.877 81.747,116.613 99.18,99.18 C100.862,97.525 102.671,96.003 104.59,94.63 L104.59,67.63 L56.79,19.8 L19.79,56.8 L67.62,104.6 L0,104.6 L0,156.89 L67.62,156.89 L19.8,204.71 L56.8,241.71 L104.61,193.9 L104.61,166.9 C102.681,165.517 100.865,163.982 99.18,162.31 z" fill="#D9DBDC"/>
    <path d="M174.78,137.8 C171.723,156.879 156.733,171.822 137.645,174.82 C118.557,177.818 99.708,168.189 90.949,150.966 C82.191,133.742 85.513,112.839 99.18,99.18 C100.862,97.525 102.671,96.003 104.59,94.63 C117.127,85.506 133.507,83.56 147.832,89.493 C162.158,95.426 172.365,108.384 174.78,123.7 L193.88,104.6 L241.69,56.79 L204.69,19.79 L156.89,67.62 L156.89,0 L104.59,0 L104.59,67.62 L56.79,19.8 L19.79,56.8 L67.62,104.6 L0,104.6 L0,156.89 L67.62,156.89 L19.8,204.71 L56.8,241.71 L104.61,193.9 L104.61,261.51 L156.9,261.51 L156.9,193.88 L204.72,241.69 L241.72,204.69 L193.9,156.87 z M164,74.67 L204.76,33.91 L227.63,56.79 L186.82,97.54 L179.07,105.3 C176.517,100.445 173.243,96.004 169.36,92.13 C165.484,88.255 161.052,84.979 156.21,82.41 z M147,9.97 L147,78.57 C136.46,75.327 125.19,75.327 114.65,78.57 L114.65,10 z M34,56.79 L56.79,33.91 L94.62,71.75 L94.62,89.81 C93.74,90.58 92.91,91.35 92.13,92.13 C88.248,96.003 84.969,100.436 82.4,105.28 L74.67,97.54 z M10,146.92 L10,114.57 L78.56,114.57 C75.317,125.11 75.317,136.38 78.56,146.92 L10,146.92 z M94.65,189.74 L56.79,227.58 L33.91,204.71 L74.67,164 L82.4,156.26 C84.966,161.1 88.243,165.53 92.12,169.4 C92.91,170.19 93.74,170.96 94.62,171.73 z M146.95,193.88 L146.95,251.52 L114.57,251.52 L114.57,182.88 C125.11,186.123 136.38,186.123 146.92,182.88 z M204.74,227.58 L164,186.82 L156.26,179.08 C166.005,173.918 173.971,165.942 179.12,156.19 L186.87,163.94 L227.63,204.71 z" fill="#231F20"/>
  </g>
</svg>
